<svg width="81" height="32" viewBox="0 0 81 32" fill="none" xmlns="http://www.w3.org/2000/svg">
<rect width="81" height="32" rx="16" fill="#1F883D"/>
<path d="M40.0947 15.988C40.0947 16.7627 39.9967 17.4673 39.8007 18.102C39.614 18.7273 39.3247 19.2687 38.9327 19.726C38.55 20.1833 38.0554 20.5333 37.4487 20.776C36.8514 21.0187 36.1467 21.14 35.3347 21.14C34.5227 21.14 33.8134 21.0187 33.2067 20.776C32.6094 20.524 32.1147 20.174 31.7227 19.726C31.34 19.2687 31.0507 18.7227 30.8547 18.088C30.668 17.4533 30.5747 16.7487 30.5747 15.974C30.5747 14.938 30.7427 14.0373 31.0787 13.272C31.424 12.5067 31.9467 11.914 32.6467 11.494C33.356 11.0647 34.2567 10.85 35.3487 10.85C36.4314 10.85 37.3227 11.0647 38.0227 11.494C38.7227 11.914 39.2407 12.5113 39.5767 13.286C39.922 14.0513 40.0947 14.952 40.0947 15.988ZM32.8007 15.988C32.8007 16.688 32.8894 17.29 33.0667 17.794C33.244 18.298 33.5194 18.6853 33.8927 18.956C34.266 19.2267 34.7467 19.362 35.3347 19.362C35.9414 19.362 36.4267 19.2267 36.7907 18.956C37.164 18.6853 37.4347 18.298 37.6027 17.794C37.78 17.29 37.8687 16.688 37.8687 15.988C37.8687 14.9333 37.6727 14.1073 37.2807 13.51C36.8887 12.9127 36.2447 12.614 35.3487 12.614C34.7514 12.614 34.266 12.7493 33.8927 13.02C33.5194 13.2907 33.244 13.678 33.0667 14.182C32.8894 14.686 32.8007 15.288 32.8007 15.988ZM46.2533 13.216C47.1119 13.216 47.8073 13.552 48.3393 14.224C48.8713 14.8867 49.1373 15.8667 49.1373 17.164C49.1373 18.032 49.0113 18.7647 48.7593 19.362C48.5073 19.95 48.1619 20.3933 47.7233 20.692C47.2846 20.9907 46.7759 21.14 46.1973 21.14C45.8333 21.14 45.5159 21.0933 45.2453 21C44.9839 20.9067 44.7599 20.7853 44.5733 20.636C44.3866 20.4867 44.2233 20.328 44.0833 20.16H43.9713C44.0086 20.3373 44.0366 20.524 44.0553 20.72C44.0739 20.9067 44.0833 21.0933 44.0833 21.28V24.36H41.9973V13.356H43.6913L43.9853 14.35H44.0833C44.2233 14.1447 44.3913 13.958 44.5873 13.79C44.7833 13.6127 45.0166 13.4727 45.2873 13.37C45.5673 13.2673 45.8893 13.216 46.2533 13.216ZM45.5813 14.882C45.2173 14.882 44.9279 14.9567 44.7133 15.106C44.4986 15.2553 44.3399 15.484 44.2373 15.792C44.1439 16.0907 44.0926 16.4687 44.0833 16.926V17.15C44.0833 17.6447 44.1299 18.0647 44.2233 18.41C44.3166 18.746 44.4753 19.0027 44.6993 19.18C44.9233 19.3573 45.2266 19.446 45.6093 19.446C45.9266 19.446 46.1879 19.3573 46.3933 19.18C46.5986 19.0027 46.7526 18.7413 46.8553 18.396C46.9579 18.0507 47.0093 17.6307 47.0093 17.136C47.0093 16.3893 46.8926 15.8293 46.6593 15.456C46.4353 15.0733 46.0759 14.882 45.5813 14.882ZM54.0066 13.216C54.716 13.216 55.3226 13.3513 55.8266 13.622C56.34 13.8927 56.7366 14.2847 57.0166 14.798C57.2966 15.3113 57.4366 15.9413 57.4366 16.688V17.696H52.5086C52.5273 18.284 52.7 18.746 53.0266 19.082C53.3626 19.418 53.8246 19.586 54.4126 19.586C54.9073 19.586 55.3553 19.5393 55.7566 19.446C56.158 19.3433 56.5733 19.1893 57.0026 18.984V20.594C56.6293 20.7807 56.2326 20.916 55.8126 21C55.402 21.0933 54.9026 21.14 54.3146 21.14C53.5493 21.14 52.8726 21 52.2846 20.72C51.6966 20.4307 51.2346 19.9967 50.8986 19.418C50.5626 18.8393 50.3946 18.1113 50.3946 17.234C50.3946 16.338 50.544 15.596 50.8426 15.008C51.1506 14.4107 51.5753 13.9627 52.1166 13.664C52.658 13.3653 53.288 13.216 54.0066 13.216ZM54.0206 14.7C53.6193 14.7 53.2833 14.8307 53.0126 15.092C52.7513 15.3533 52.5973 15.7593 52.5506 16.31H55.4766C55.4766 16.002 55.4206 15.7267 55.3086 15.484C55.206 15.2413 55.0473 15.05 54.8326 14.91C54.618 14.77 54.3473 14.7 54.0206 14.7ZM63.4681 13.216C64.2895 13.216 64.9475 13.44 65.4421 13.888C65.9368 14.3267 66.1841 15.036 66.1841 16.016V21H64.0981V16.534C64.0981 15.9833 64.0001 15.5727 63.8041 15.302C63.6081 15.022 63.2955 14.882 62.8661 14.882C62.2315 14.882 61.7975 15.1013 61.5641 15.54C61.3308 15.9693 61.2141 16.59 61.2141 17.402V21H59.1281V13.356H60.7241L61.0041 14.336H61.1161C61.2841 14.0747 61.4895 13.8647 61.7321 13.706C61.9748 13.538 62.2455 13.4167 62.5441 13.342C62.8428 13.258 63.1508 13.216 63.4681 13.216Z" fill="white"/>
<circle cx="17" cy="16" r="6.5" stroke="white"/>
<circle cx="17" cy="16" r="1" fill="white"/>
</svg>
